<svg width="37" height="31" viewBox="0 0 37 31" fill="none" xmlns="http://www.w3.org/2000/svg">
    <path d="M3.08333 7.7436C3.08333 7.03319 3.77092 6.45839 4.61729 6.45839L16.966 6.45839C17.3729 6.45839 17.763 6.5938 18.0507 6.83482C18.3384 7.07584 18.5 7.40274 18.5 7.7436C18.5 8.08446 18.3384 8.41136 18.0507 8.65238C17.763 8.8934 17.3729 9.02881 16.966 9.02881L4.61729 9.02881C3.76938 9.02881 3.08333 8.45402 3.08333 7.7436V7.7436Z" fill="white" />
    <path d="M3.08316 15.5C3.08316 14.7895 3.77075 14.2147 4.61712 14.2147L32.3825 14.2147C32.7894 14.2147 33.1795 14.3501 33.4672 14.5912C33.7549 14.8322 33.9165 15.1591 33.9165 15.4999C33.9165 15.8408 33.7549 16.1677 33.4672 16.4087C33.1795 16.6498 32.7894 16.7852 32.3825 16.7852L4.61712 16.7852C3.7692 16.7852 3.08316 16.2091 3.08316 15.5V15.5Z" fill="white" />
    <path d="M4.61713 21.9712C4.2103 21.9712 3.82013 22.1066 3.53245 22.3476C3.24478 22.5887 3.08317 22.9156 3.08317 23.2564C3.08317 23.5973 3.24478 23.9242 3.53245 24.1652C3.82013 24.4062 4.2103 24.5416 4.61713 24.5416L23.1325 24.5416C23.334 24.5416 23.5335 24.5084 23.7196 24.4438C23.9057 24.3792 24.0748 24.2845 24.2172 24.1652C24.3597 24.0459 24.4726 23.9042 24.5497 23.7482C24.6268 23.5923 24.6665 23.4252 24.6665 23.2564C24.6665 23.0876 24.6268 22.9205 24.5497 22.7646C24.4726 22.6087 24.3597 22.467 24.2172 22.3476C24.0748 22.2283 23.9057 22.1336 23.7196 22.069C23.5335 22.0045 23.334 21.9712 23.1325 21.9712L4.61713 21.9712Z" fill="white" />
</svg>