<svg xmlns="http://www.w3.org/2000/svg">
    <symbol id="phone" viewBox="0 0 21 20">
        <path d="M13.5318 14.2139L15.254 12.491C15.486 12.2618 15.7794 12.1049 16.0988 12.0394C16.4182 11.9739 16.7497 12.0025 17.0531 12.1218L19.152 12.9602C19.4586 13.0847 19.7215 13.2972 19.9076 13.5709C20.0937 13.8447 20.1946 14.1674 20.1976 14.4985V18.3442C20.1958 18.5694 20.1485 18.7919 20.0585 18.9983C19.9685 19.2047 19.8377 19.3908 19.6739 19.5453C19.5101 19.6998 19.3168 19.8195 19.1056 19.8973C18.8943 19.9751 18.6695 20.0093 18.4447 19.9979C3.73683 19.0826 0.769122 6.62239 0.207871 1.85368C0.181817 1.6195 0.205622 1.38246 0.277718 1.15814C0.349815 0.933831 0.468569 0.727331 0.62617 0.55223C0.78377 0.377128 0.976644 0.237394 1.1921 0.142219C1.40756 0.0470438 1.64072 -0.00141458 1.87625 3.14343e-05H5.58973C5.92111 0.0010127 6.24461 0.101149 6.51863 0.287561C6.79266 0.473973 7.00467 0.738135 7.1274 1.04607L7.96544 3.14584C8.08864 3.44817 8.12008 3.78011 8.05581 4.10021C7.99154 4.4203 7.83443 4.71436 7.60408 4.94565L5.88189 6.66854C5.88189 6.66854 6.87369 13.3832 13.5318 14.2139Z" />
    </symbol>
    <symbol id="burger" viewBox="0 0 37 31">
        <path d="M3.08333 7.7436C3.08333 7.03319 3.77092 6.45839 4.61729 6.45839L16.966 6.45839C17.3729 6.45839 17.763 6.5938 18.0507 6.83482C18.3384 7.07584 18.5 7.40274 18.5 7.7436C18.5 8.08446 18.3384 8.41136 18.0507 8.65238C17.763 8.8934 17.3729 9.02881 16.966 9.02881L4.61729 9.02881C3.76938 9.02881 3.08333 8.45402 3.08333 7.7436V7.7436Z" />
        <path d="M3.08316 15.5C3.08316 14.7895 3.77075 14.2147 4.61712 14.2147L32.3825 14.2147C32.7894 14.2147 33.1795 14.3501 33.4672 14.5912C33.7549 14.8322 33.9165 15.1591 33.9165 15.4999C33.9165 15.8408 33.7549 16.1677 33.4672 16.4087C33.1795 16.6498 32.7894 16.7852 32.3825 16.7852L4.61712 16.7852C3.7692 16.7852 3.08316 16.2091 3.08316 15.5V15.5Z" />
        <path d="M4.61713 21.9712C4.2103 21.9712 3.82013 22.1066 3.53245 22.3476C3.24478 22.5887 3.08317 22.9156 3.08317 23.2564C3.08317 23.5973 3.24478 23.9242 3.53245 24.1652C3.82013 24.4062 4.2103 24.5416 4.61713 24.5416L23.1325 24.5416C23.334 24.5416 23.5335 24.5084 23.7196 24.4438C23.9057 24.3792 24.0748 24.2845 24.2172 24.1652C24.3597 24.0459 24.4726 23.9042 24.5497 23.7482C24.6268 23.5923 24.6665 23.4252 24.6665 23.2564C24.6665 23.0876 24.6268 22.9205 24.5497 22.7646C24.4726 22.6087 24.3597 22.467 24.2172 22.3476C24.0748 22.2283 23.9057 22.1336 23.7196 22.069C23.5335 22.0045 23.334 21.9712 23.1325 21.9712L4.61713 21.9712Z" />
    </symbol>
    <symbol  viewBox="0 0 16 16">
        <path d="M4.646 4.646a.5.5 0 0 1 .708 0L8 7.293l2.646-2.647a.5.5 0 0 1 .708.708L8.707 8l2.647 2.646a.5.5 0 0 1-.708.708L8 8.707l-2.646 2.647a.5.5 0 0 1-.708-.708L7.293 8 4.646 5.354a.5.5 0 0 1 0-.708"/>
    </symbol>

    <symbol id="close-x" viewBox="0 0 30 30">
        <path d="M 7 4 C 6.744125 4 6.4879687 4.0974687 6.2929688 4.2929688 L 4.2929688 6.2929688 C 3.9019687 6.6839688 3.9019687 7.3170313 4.2929688 7.7070312 L 11.585938 15 L 4.2929688 22.292969 C 3.9019687 22.683969 3.9019687 23.317031 4.2929688 23.707031 L 6.2929688 25.707031 C 6.6839688 26.098031 7.3170313 26.098031 7.7070312 25.707031 L 15 18.414062 L 22.292969 25.707031 C 22.682969 26.098031 23.317031 26.098031 23.707031 25.707031 L 25.707031 23.707031 C 26.098031 23.316031 26.098031 22.682969 25.707031 22.292969 L 18.414062 15 L 25.707031 7.7070312 C 26.098031 7.3170312 26.098031 6.6829688 25.707031 6.2929688 L 23.707031 4.2929688 C 23.316031 3.9019687 22.682969 3.9019687 22.292969 4.2929688 L 15 11.585938 L 7.7070312 4.2929688 C 7.5115312 4.0974687 7.255875 4 7 4 z"/>
    </symbol>
</svg>